<svg id="Art_3.0" data-name="Art 3.0" xmlns="http://www.w3.org/2000/svg" viewBox="0 0 48 48"><defs><style>.cls-1{fill:none;}</style></defs><path d="M8.5,12.5h-1v-5h5v1h-4Zm27-5v1h4v4h1v-5Zm4,32h-4v1h5v-5h-1Zm-31-4h-1v5h5v-1h-4ZM35.31543,19.11133l-1.27246-.9541-.6001.7998,1.27246.9541Zm.78516.58887-.6001.80029.73828.55371-1.82764,1.82764a.99878.99878,0,0,1-1.15429.1875L30.90137,21.8916,28.999,23.794,29.03076,32.5H27v-6H18.793L15.5,29.793V32.5h-2v-1h-1v2h4V30.207L19.207,27.5H26v6h4.03467L30.001,24.20605l1.09765-1.09765,1.71094.85547a1.99754,1.99754,0,0,0,2.30859-.375l2.64307-2.64307ZM14,21.207V23.793l-1.5,1.5V27.5h1V25.707l1.5-1.5V20.793l-.89648-.89649a.562.562,0,0,1,0-.793.574.574,0,0,1,.793,0L15.793,20H25.1665L30.5,16v.75l2.1001,1.5752.6001-.8003L31.5,16.25V14l-6.6665,5H16.207l-.60351-.60352a1.59756,1.59756,0,0,0-2.207,0,1.56255,1.56255,0,0,0,0,2.207ZM12.5,30.5h1v-2h-1Z"/><rect class="cls-1" width="48" height="48"/></svg>