<svg id="Art_3.0" data-name="Art 3.0" xmlns="http://www.w3.org/2000/svg" viewBox="0 0 48 48"><defs><style>.cls-1{fill:none;}</style></defs><path d="M36.49512,8.51758h-3v-1h4v4h-1Zm-25,0h3v-1h-4v4h1Zm26,21h-1v3h-3v1h4Zm-23,3h-3v-3h-1v4h4ZM17.46,10.49414h-1v1h1Zm-1.95312,3.01758h-1v1h1ZM19.49707,20.5h1v-1h-1Zm1-5h-1v1h1Zm-1,10h1v-1h-1Zm5.00977,3.00586h-1v1h1ZM39.99512,39.49414V40.541L27.13574,36.56689,23.99512,39.707l-3.14063-3.14014L7.99512,40.541V39.49414l12.5-3.86279V33.28711c-3.86182-1.79-5.87842-6.89258-5.98975-15.2627l-.00683-.49267.98486-.01319.00635.49219c.13232,9.97217,2.99414,15.02832,8.50537,15.02832,4.208,0,8.51025-1.87158,8.51025-15.75342a8.66532,8.66532,0,0,0-8.51025-8.79345,8.20837,8.20837,0,0,0-3.66016.85254l-.44141.21777L19.458,8.67969l.4414-.21778a9.17876,9.17876,0,0,1,4.09571-.9541,9.65022,9.65022,0,0,1,9.49463,9.77783c0,9.2627-1.88135,14.4087-5.99463,16.09961v2.2461Zm-16-1.20117,2.5-2.50049V33.7168a9.85129,9.85129,0,0,1-2.38306.30078c-.04.00049-.07654.00586-.11694.00586-.0365,0-.06983-.00537-.1062-.00586a8.68442,8.68442,0,0,1-2.3938-.35205v2.127ZM27.48535,20.5h1v-1h-1Zm1-5h-1v1h1Zm-1,10h1v-1h-1Z"/><rect class="cls-1" width="48" height="48"/></svg>