<svg id="Art_3.0" data-name="Art 3.0" xmlns="http://www.w3.org/2000/svg" viewBox="0 0 48 48"><defs><style>.cls-1{fill:none;}</style></defs><path d="M16.5,40.47864H7.45361v-1H16.5Zm23.95361-1H32.5v1h7.95361Zm-14.95361,0h-2v1h2Zm-13-31h3v-1h-4v4h1Zm25-1h-4v1h3v3h1Zm-22,30h-3v-3h-1v4h4Zm22-3h-1v3h-3v1h4ZM26.45361,10.97852a4.5,4.5,0,1,1-4.5-4.5A4.50492,4.50492,0,0,1,26.45361,10.97852Zm-3.33752,3.28662a3.48349,3.48349,0,0,0,.72034-.34571l-5.33228-3.43994a3.42774,3.42774,0,0,0-.05054.499c0,.10205.02149.19775.03.29785Zm1.49512-1.03565a3.51354,3.51354,0,0,0,.30957-.4165l-5.87-3.78711a3.50145,3.50145,0,0,0-.248.45654Zm.70959-1.34814a3.46944,3.46944,0,0,0,.116-.73584L20.36829,7.876a3.476,3.476,0,0,0-.62159.40869ZM21.95361,7.47852c-.10559,0-.20507.022-.30835.03125L25.24487,9.832A3.49432,3.49432,0,0,0,21.95361,7.47852Zm-.416,6.958-2.56983-1.65771A3.48416,3.48416,0,0,0,21.5376,14.43652Zm9.75,24.9917a2.86606,2.86606,0,0,1-5.07227-1.38965l-1.66015-5.77636-.25953-.25928-1.3479,6.26416a2.92567,2.92567,0,1,1-5.68115-1.40088l1.70361-7.56836A2.47474,2.47474,0,0,1,18,29.5,2.50294,2.50294,0,0,1,15.5,27V20.812l3.251-4.33447,5.43408.02344,5.46728,4.66357a2.53995,2.53995,0,0,1,.14356,3.7251,2.60034,2.60034,0,0,1-3.41016.16553l.09278.74218,3.98437,4.959,1.38721,6.25781A2.85364,2.85364,0,0,1,31.2876,39.42822Zm-1.9447.03955a1.83756,1.83756,0,0,0,.78588-.31884l-3.12732-1.98.18946.66113a2.094,2.094,0,0,0,.07641.32324Zm1.41833-1.10254a1.84123,1.84123,0,0,0,.15723-.7163L26.301,34.72559l.28588.99707ZM16.5,21.14551v.19092l3,1.89941v-.81641l-2.68213-1.69824ZM23.81494,17.499l-.74487-.00293,1.48022.937-.043-.34327Zm-2.62744-.01074-1.29785-.00586L24.82178,20.605l-.11084-.88623Zm4.61768,2.92334.11084.88623,3.54968,2.24707a1.53125,1.53125,0,0,0,.07287-.50976,1.55245,1.55245,0,0,0-.04-.28516ZM28.83984,30.333,20.5,25.05273v.81641l9.1377,5.78516-.10059-.45362Zm-1.93579-2.40918-1.33459-1.66162L20.5,23.05273v.81641Zm1.0979-3.30518a1.55614,1.55614,0,0,0,.84668-.27978L26.07678,22.584l.10926.87354.03112.03076Zm-9.15014-6.60937-.415.55322,6.65649,4.21436-.11084-.88623Zm-1.017,1.356-.41492.55372,7.94483,5.02978-.11084-.88574ZM16.5,22.52v.81641l3,1.89941v-.81641Zm0,2v.81641l2.94263,1.86328L19.5,26.94434v-.52491Zm6.93286,5.20605,6.72034,4.2544-.21045-.94922L21.20813,27.501Zm2.168,2.55616.28564.99707,4.78235,3.02783-.21045-.94971Zm.03442-13.2295.00928.07325.29883.18945ZM18,28.5a1.48919,1.48919,0,0,0,1.00464-.394L16.5,26.52V27A1.50164,1.50164,0,0,0,18,28.5Zm3.97412,9.54053.01038-.04834-3.4541-2.18653-.16089.71436,3.34216,2.11572A1.92093,1.92093,0,0,0,21.97412,38.04053Zm.23438-1.08985.15454-.71826-3.43872-2.17724-.16065.71435Zm.37866-1.76025.15454-.71826-3.42334-2.16748-.16065.71435Zm.37866-1.76025.15454-.71827-3.408-2.15771-.16076.71435ZM20.10547,39.5a1.89076,1.89076,0,0,0,.79431-.19385l-2.71484-1.71924a1.89777,1.89777,0,0,0,.30114,1.00684l1.39038.88037A1.87992,1.87992,0,0,0,20.10547,39.5Zm3.34839-8.33887-.64942-.64941-2.698-1.708-.16077.71436,3.3988,2.15185Z"/><rect class="cls-1" width="48" height="48"/></svg>